<svg width="28" height="30" viewBox="0 0 28 30" fill="none" xmlns="http://www.w3.org/2000/svg">
<path d="M14.0007 1.51673e-05C11.017 1.51673e-05 8.1555 1.18528 6.04571 3.29506C3.93593 5.40485 2.75066 8.26633 2.75066 11.25V17.2525L0.340664 23.2875C0.265181 23.477 0.237234 23.6822 0.259261 23.885C0.281288 24.0878 0.352621 24.2821 0.467032 24.451C0.581444 24.6199 0.735457 24.7583 0.915629 24.854C1.0958 24.9497 1.29666 24.9998 1.50066 25H9.00066C9.00066 27.77 11.2307 30 14.0007 30C16.7707 30 19.0007 27.77 19.0007 25H26.5007C26.7047 24.9998 26.9055 24.9497 27.0857 24.854C27.2659 24.7583 27.4199 24.6199 27.5343 24.451C27.6487 24.2821 27.72 24.0878 27.7421 23.885C27.7641 23.6822 27.7361 23.477 27.6607 23.2875L25.2507 17.25V12.5C24.3904 12.5013 23.5391 12.3242 22.7507 11.98V17.495C22.7511 17.6535 22.7816 17.8104 22.8407 17.9575L24.6557 22.5H3.34566L5.16066 17.9575C5.21971 17.8104 5.25025 17.6535 5.25066 17.495V11.25C5.25023 9.61818 5.70614 8.01874 6.56687 6.63237C7.42761 5.246 8.65889 4.12795 10.1216 3.40453C11.5843 2.6811 13.2202 2.38112 14.8444 2.53848C16.4687 2.69584 18.0165 3.30426 19.3132 4.29501C19.5807 3.48251 20.0107 2.74002 20.5657 2.11252C18.654 0.735362 16.3567 -0.00386116 14.0007 1.51673e-05ZM16.5007 25C16.5007 26.39 15.3907 27.5 14.0007 27.5C12.6107 27.5 11.5007 26.39 11.5007 25H16.5007Z" fill="#333333"/>
<path d="M13.9993 1.51673e-05C16.983 1.51673e-05 19.8445 1.18528 21.9543 3.29506C24.0641 5.40485 25.2493 8.26633 25.2493 11.25V17.2525L27.6593 23.2875C27.7348 23.477 27.7628 23.6822 27.7407 23.885C27.7187 24.0878 27.6474 24.2821 27.533 24.451C27.4186 24.6199 27.2645 24.7583 27.0844 24.854C26.9042 24.9497 26.7033 24.9998 26.4993 25H18.9993C18.9993 27.77 16.7693 30 13.9993 30C11.2293 30 8.99934 27.77 8.99934 25H1.49934C1.29533 24.9998 1.09448 24.9497 0.914303 24.854C0.734131 24.7583 0.580116 24.6199 0.465704 24.451C0.351292 24.2821 0.279962 24.0878 0.257935 23.885C0.235907 23.6822 0.263854 23.477 0.339336 23.2875L2.74934 17.25V12.5C3.60965 12.5013 4.46089 12.3242 5.24934 11.98V17.495C5.24893 17.6535 5.21838 17.8104 5.15934 17.9575L3.34434 22.5H24.6543L22.8393 17.9575C22.7803 17.8104 22.7497 17.6535 22.7493 17.495V11.25C22.7498 9.61818 22.2939 8.01874 21.4331 6.63237C20.5724 5.246 19.3411 4.12795 17.8784 3.40453C16.4157 2.6811 14.7798 2.38112 13.1556 2.53848C11.5313 2.69584 9.98348 3.30426 8.68684 4.29501C8.41934 3.48251 7.98934 2.74002 7.43434 2.11252C9.346 0.735362 11.6433 -0.00386116 13.9993 1.51673e-05ZM11.4993 25C11.4993 26.39 12.6093 27.5 13.9993 27.5C15.3893 27.5 16.4993 26.39 16.4993 25H11.4993Z" fill="#333333"/>
</svg>
