<svg width="20" height="14" viewBox="0 0 20 14" fill="none" xmlns="http://www.w3.org/2000/svg">
<path d="M13.8923 7.94134C15.034 8.71634 15.834 9.76634 15.834 11.1663V13.6663H19.1673V11.1663C19.1673 9.34967 16.1923 8.27467 13.8923 7.94134ZM12.5007 6.99967C14.3423 6.99967 15.834 5.50801 15.834 3.66634C15.834 1.82467 14.3423 0.333008 12.5007 0.333008C12.109 0.333008 11.7423 0.416341 11.3923 0.533008C12.1094 1.41986 12.5006 2.52584 12.5006 3.66634C12.5006 4.80684 12.1094 5.91283 11.3923 6.79967C11.7423 6.91634 12.109 6.99967 12.5007 6.99967ZM7.50065 6.99967C9.34232 6.99967 10.834 5.50801 10.834 3.66634C10.834 1.82467 9.34232 0.333008 7.50065 0.333008C5.65898 0.333008 4.16732 1.82467 4.16732 3.66634C4.16732 5.50801 5.65898 6.99967 7.50065 6.99967ZM7.50065 1.99967C8.41732 1.99967 9.16732 2.74967 9.16732 3.66634C9.16732 4.58301 8.41732 5.33301 7.50065 5.33301C6.58398 5.33301 5.83398 4.58301 5.83398 3.66634C5.83398 2.74967 6.58398 1.99967 7.50065 1.99967ZM7.50065 7.83301C5.27565 7.83301 0.833984 8.94967 0.833984 11.1663V13.6663H14.1673V11.1663C14.1673 8.94967 9.72565 7.83301 7.50065 7.83301ZM12.5007 11.9997H2.50065V11.1747C2.66732 10.5747 5.25065 9.49967 7.50065 9.49967C9.75065 9.49967 12.334 10.5747 12.5007 11.1663V11.9997Z" fill="#A4A4A4"/>
</svg>
