<svg width="25" height="25" viewBox="0 0 25 25" fill="none" xmlns="http://www.w3.org/2000/svg">
<circle cx="12.5" cy="12.5" r="12.5" fill="#EB5757"/>
<path d="M14.4103 7.7493C14.4591 6.79803 13.7009 6 12.7484 6C11.7971 6 11.0394 6.79611 11.0864 7.74627L11.4225 14.544C11.4573 15.2475 12.0378 15.8 12.7422 15.8C13.4456 15.8 14.0257 15.2489 14.0617 14.5464L14.4103 7.7493Z" fill="white"/>
<path d="M13.916 18.3659C13.916 17.7216 13.3937 17.1992 12.7493 17.1992C12.105 17.1992 11.5827 17.7216 11.5827 18.3659V18.8326C11.5827 19.4769 12.105 19.9992 12.7493 19.9992C13.3937 19.9992 13.916 19.4769 13.916 18.8326V18.3659Z" fill="white"/>
</svg>
