<svg width="18" height="18" viewBox="0 0 18 18" fill="none" xmlns="http://www.w3.org/2000/svg">
<rect width="18" height="18" rx="4" fill="#333333"/>
<path d="M4.4789 5.27218C5.65724 6.78301 7.83307 9.58301 7.83307 9.58301V13.083C7.83307 13.4038 8.09557 13.6663 8.4164 13.6663H9.58307C9.9039 13.6663 10.1664 13.4038 10.1664 13.083V9.58301C10.1664 9.58301 12.3364 6.78301 13.5147 5.27218C13.5816 5.18606 13.6229 5.0829 13.634 4.97444C13.6451 4.86599 13.6255 4.7566 13.5775 4.65872C13.5295 4.56085 13.455 4.47843 13.3624 4.42084C13.2698 4.36326 13.1629 4.33283 13.0539 4.33301H4.93974C4.45557 4.33301 4.1814 4.88718 4.4789 5.27218Z" fill="white"/>
</svg>
