<svg width="563" height="276" viewBox="0 0 563 276" fill="none" xmlns="http://www.w3.org/2000/svg">
<g filter="url(#filter0_d_2642_10076)">
<rect width="460.842" height="18.8141" rx="9.40705" transform="matrix(0.990908 0.134538 -0.133356 0.991068 62.6133 114.631)" fill="#D9D9D9"/>
<rect width="460.842" height="223.125" rx="10" transform="matrix(0.990908 0.134538 -0.133356 0.991068 62.0469 117.154)" fill="#DAD9D9"/>
<path d="M514.312 192.071L63.3418 130.842C65.7921 153.322 72.5036 228.331 96.1808 239.548C119.858 250.765 438.436 296.561 462.594 289.297C486.753 282.033 501.973 221.973 514.312 192.071Z" fill="#C1C1C1"/>
<path d="M516.406 196.128L60.2012 134.188C63.1094 153.737 71.3357 218.938 95.4429 229.132C119.55 239.326 441.875 285.287 466.109 279.458C490.344 273.63 504.535 221.826 516.406 196.128Z" fill="#F2F2F2"/>
<rect width="461.219" height="25.837" rx="10" transform="matrix(0.990097 0.134428 -0.133465 0.991873 62.5117 112.354)" fill="#F2F2F2"/>
</g>
<defs>
<filter id="filter0_d_2642_10076" x="29.5352" y="113.605" width="492.561" height="293.428" filterUnits="userSpaceOnUse" color-interpolation-filters="sRGB">
<feFlood flood-opacity="0" result="BackgroundImageFix"/>
<feColorMatrix in="SourceAlpha" type="matrix" values="0 0 0 0 0 0 0 0 0 0 0 0 0 0 0 0 0 0 127 0" result="hardAlpha"/>
<feOffset dy="4"/>
<feGaussianBlur stdDeviation="2"/>
<feComposite in2="hardAlpha" operator="out"/>
<feColorMatrix type="matrix" values="0 0 0 0 0 0 0 0 0 0 0 0 0 0 0 0 0 0 0.25 0"/>
<feBlend mode="normal" in2="BackgroundImageFix" result="effect1_dropShadow_2642_10076"/>
<feBlend mode="normal" in="SourceGraphic" in2="effect1_dropShadow_2642_10076" result="shape"/>
</filter>
</defs>
</svg>
