<svg width="566" height="180" viewBox="0 0 566 180" fill="none" xmlns="http://www.w3.org/2000/svg">
<rect x="57.7539" y="125.314" width="81.6777" height="25.7134" rx="12.8567" transform="rotate(-135 57.7539 125.314)" fill="#404040"/>
<rect x="0.00390625" y="67.6895" width="81.2224" height="25.7134" rx="12.8567" transform="rotate(-45.2575 0.00390625 67.6895)" fill="#404040"/>
<rect x="89.125" y="57.4062" width="81.5252" height="25.7134" rx="12.8567" transform="rotate(45 89.125 57.4062)" fill="#404040"/>
<rect x="146.875" y="115.031" width="81.2224" height="25.7134" rx="12.8567" transform="rotate(134.743 146.875 115.031)" fill="#404040"/>
<rect x="34.4609" y="172.229" width="168.46" height="24.5145" rx="12.2573" transform="rotate(-72.1686 34.4609 172.229)" fill="url(#paint0_linear_1352_10731)"/>
<path d="M91.5332 33.0402C94.8726 34.3238 98.3588 34.528 101.333 33.7185C104.306 32.9094 106.923 31.0236 108.067 28.0484C109.211 25.0732 108.53 21.9197 106.865 19.3278C105.198 16.7345 102.473 14.551 99.1335 13.2674C95.7942 11.9839 92.308 11.7797 89.3336 12.5892C86.3608 13.3982 83.7433 15.284 82.5997 18.2592C81.4561 21.2344 82.1365 24.3879 83.8021 26.9798C85.4685 29.5732 88.1939 31.7566 91.5332 33.0402Z" fill="#FF3737" stroke="white" stroke-width="4.41379"/>
<path d="M174.373 138V35.2067H215.263C237.98 35.2067 249.339 46.1391 249.339 61.6149C249.339 73.6832 241.53 81.2081 230.881 83.6218V84.6156C242.523 85.1835 253.456 94.4122 253.456 109.604C253.456 125.932 241.246 138 217.961 138H174.373ZM213.702 120.395C226.054 120.395 231.307 115.283 231.307 107.616C231.307 98.9556 224.776 92.8505 214.27 92.8505H195.67V120.395H213.702ZM212.14 78.2265C221.085 78.2265 227.758 73.2573 227.758 65.0224C227.758 57.6395 222.362 52.5282 212.566 52.5282H195.67V78.2265H212.14ZM262.827 116.419C262.827 99.2395 276.741 93.5604 291.506 92.7085C297.044 92.3535 307.408 91.8566 310.674 91.7146V85.4675C310.532 79.0784 306.13 75.245 298.322 75.245C291.223 75.245 286.679 78.5105 285.543 83.7638H265.524C266.802 70.4177 278.444 59.9112 298.889 59.9112C315.643 59.9112 331.545 67.4361 331.545 86.0354V138H311.668V127.352H311.1C307.266 134.451 300.025 139.42 288.525 139.42C273.759 139.42 262.827 131.753 262.827 116.419ZM282.988 115.851C282.988 121.814 287.815 124.938 294.488 124.938C304.001 124.938 310.816 118.549 310.674 110.456V104.777C307.479 104.919 298.534 105.416 294.914 105.771C287.673 106.481 282.988 109.888 282.988 115.851ZM388.195 60.905V76.6648H373.713V114.289C373.713 120.395 376.694 121.956 380.954 122.098C383.083 122.098 386.775 121.956 389.33 121.672V138.284C387.059 138.71 383.367 138.994 378.114 138.994C362.922 138.994 352.558 132.179 352.7 117.271V76.6648H342.051V60.905H352.7V42.4477H373.713V60.905H388.195ZM435.19 139.562C411.905 139.562 397.423 123.518 397.423 99.6655C397.423 75.8129 411.905 59.9112 435.19 59.9112C458.475 59.9112 473.099 75.8129 473.099 99.6655C473.099 123.518 458.475 139.562 435.19 139.562ZM435.332 123.234C446.122 123.234 451.66 113.154 451.66 99.6655C451.66 86.0354 446.122 75.9549 435.332 75.9549C424.399 75.9549 418.72 86.0354 418.72 99.6655C418.72 113.154 424.399 123.234 435.332 123.234ZM507.316 93.4184V138H486.303V60.905H506.322V74.3931H507.174C510.723 65.4484 518.958 59.9112 530.316 59.9112C546.36 59.9112 557.009 70.8436 556.867 88.875V138H535.996V92.5665C535.996 83.0539 530.742 77.3747 522.082 77.3747C513.279 77.3747 507.316 83.1958 507.316 93.4184Z" fill="#333333"/>
<defs>
<linearGradient id="paint0_linear_1352_10731" x1="167.228" y1="189.309" x2="36.9156" y2="187.37" gradientUnits="userSpaceOnUse">
<stop offset="0.311109" stop-color="#F13232"/>
<stop offset="1" stop-color="#FF7D45"/>
</linearGradient>
</defs>
</svg>
