<svg width="377" height="67" viewBox="0 0 377 67" fill="none" xmlns="http://www.w3.org/2000/svg">
<path d="M37.2537 45.5458V60.5346L0 40.1614V27.3555L37.2537 45.5458Z" fill="#D23333"/>
<path d="M79.7461 45.5458V60.5346L117 40.1614V27.3555L79.7461 45.5458Z" fill="url(#paint0_linear_2757_9952)"/>
<path d="M37.2537 22.1158V7.12695L0 27.5001V40.3061L37.2537 22.1158Z" fill="#F64545"/>
<path d="M79.7461 22.2613V7.27246L117 27.6456V40.4516L79.7461 22.2613Z" fill="#F64545"/>
<path d="M76.3991 1.01562H61.4103L40.7461 66.9373H56.0259L76.3991 1.01562Z" fill="#333333"/>
<path d="M190.836 25.9621L183.061 30.4306V30.6094L190.836 35.078V56.8846L180.469 62.8725H146.598V0.3125H180.469L190.836 6.3004V25.9621ZM159.11 35.8823V52.1479H178.324V35.8823H159.11ZM159.11 11.037V25.1577H178.324V11.037H159.11ZM213.362 45.2663V53.0416H225.963V45.2663H213.362ZM211.485 63.3193L201.118 57.3314V41.8702L211.485 35.8823H225.963V28.6432H205.586V18.1868H227.84L238.207 24.1746V63.3193H232.308L225.963 59.6551L219.618 63.3193H211.485ZM245.796 28.6432V18.1868H254.019V10.6796L266.262 3.6192V18.1868H276.093V28.6432H266.262V52.416H276.093V62.8725H264.386L254.019 56.8846V28.6432H245.796ZM325.222 57.3314L314.855 63.3193H295.819L285.451 57.3314V23.7278L295.819 17.7399H314.855L325.222 23.7278V57.3314ZM297.695 28.1964V52.8629H312.978V28.1964H297.695ZM376.139 23.7278V62.8725H363.895V28.1964H348.613V62.8725H336.369V17.7399H346.468L348.613 21.4041L354.958 17.7399H365.772L376.139 23.7278Z" fill="#333333"/>
<defs>
<linearGradient id="paint0_linear_2757_9952" x1="110.718" y1="39.8854" x2="74.5971" y2="58.731" gradientUnits="userSpaceOnUse">
<stop stop-color="#AE2121"/>
<stop offset="1" stop-color="#F64545"/>
</linearGradient>
</defs>
</svg>
