<svg width="19" height="19" viewBox="0 0 19 19" fill="none" xmlns="http://www.w3.org/2000/svg">
<path d="M8.45833 10.5417V0.125H10.5417V10.5417H8.45833ZM9.5 18.875C8.21528 18.875 7.00417 18.6274 5.86667 18.1323C4.72917 17.6372 3.73542 16.9646 2.88542 16.1146C2.03472 15.2639 1.36181 14.2698 0.866668 13.1323C0.371529 11.9948 0.124307 10.784 0.125001 9.5C0.125001 8.11111 0.41146 6.80035 0.984377 5.56771C1.55729 4.33507 2.36459 3.26736 3.40625 2.36458L4.91667 3.875C4.04861 4.53472 3.38021 5.35938 2.91146 6.34896C2.44271 7.33854 2.20833 8.38889 2.20833 9.5C2.20833 11.5139 2.92014 13.2326 4.34375 14.6563C5.76736 16.0799 7.48611 16.7917 9.5 16.7917C11.5313 16.7917 13.2545 16.0799 14.6698 14.6563C16.0851 13.2326 16.7924 11.5139 16.7917 9.5C16.7917 8.38889 16.5615 7.33854 16.101 6.34896C15.6406 5.35938 14.9681 4.53472 14.0833 3.875L15.5938 2.36458C16.6354 3.26736 17.4427 4.33507 18.0156 5.56771C18.5885 6.80035 18.875 8.11111 18.875 9.5C18.875 10.7847 18.6274 11.9958 18.1323 13.1333C17.6372 14.2708 16.9691 15.2646 16.1281 16.1146C15.2858 16.9653 14.2962 17.6382 13.1594 18.1333C12.0226 18.6285 10.8028 18.8757 9.5 18.875Z" fill="black"/>
</svg>
