<svg width="21" height="21" viewBox="0 0 21 21" fill="none" xmlns="http://www.w3.org/2000/svg">
<path d="M4.0944 15.8122C4.97982 15.1351 5.9694 14.6011 7.06315 14.2101C8.1569 13.8191 9.30274 13.624 10.5007 13.6247C11.6986 13.6247 12.8444 13.8202 13.9382 14.2111C15.0319 14.6021 16.0215 15.1358 16.9069 15.8122C17.5145 15.1004 17.9878 14.2931 18.3267 13.3903C18.6656 12.4875 18.8347 11.524 18.834 10.4997C18.834 8.19065 18.0225 6.22433 16.3996 4.60072C14.7767 2.97711 12.8104 2.16565 10.5007 2.16634C8.19162 2.16634 6.2253 2.9778 4.60169 4.60072C2.97808 6.22363 2.16662 8.18995 2.16732 10.4997C2.16732 11.524 2.33676 12.4875 2.67565 13.3903C3.01454 14.2931 3.48746 15.1004 4.0944 15.8122ZM10.5007 11.5413C9.47635 11.5413 8.61246 11.19 7.90899 10.4872C7.20551 9.7844 6.85412 8.92051 6.85482 7.89551C6.85482 6.8712 7.20621 6.00731 7.90899 5.30384C8.61176 4.60037 9.47565 4.24898 10.5007 4.24967C11.525 4.24967 12.3888 4.60106 13.0923 5.30384C13.7958 6.00662 14.1472 6.87051 14.1465 7.89551C14.1465 8.91981 13.7951 9.7837 13.0923 10.4872C12.3895 11.1906 11.5257 11.542 10.5007 11.5413ZM10.5007 20.9163C9.05968 20.9163 7.70551 20.6427 6.43815 20.0955C5.17079 19.5483 4.06836 18.8063 3.13086 17.8695C2.19336 16.932 1.45135 15.8295 0.904818 14.5622C0.35829 13.2948 0.0846788 11.9406 0.0839844 10.4997C0.0839844 9.0587 0.357596 7.70454 0.904818 6.43718C1.45204 5.16981 2.19405 4.06738 3.13086 3.12988C4.06836 2.19238 5.17079 1.45037 6.43815 0.903841C7.70551 0.357313 9.05968 0.0837023 10.5007 0.0830078C11.9416 0.0830078 13.2958 0.356619 14.5632 0.903841C15.8305 1.45106 16.9329 2.19308 17.8704 3.12988C18.8079 4.06738 19.5503 5.16981 20.0975 6.43718C20.6447 7.70454 20.918 9.0587 20.9173 10.4997C20.9173 11.9406 20.6437 13.2948 20.0965 14.5622C19.5493 15.8295 18.8073 16.932 17.8704 17.8695C16.9329 18.807 15.8305 19.5493 14.5632 20.0966C13.2958 20.6438 11.9416 20.917 10.5007 20.9163Z" fill="#333333"/>
</svg>
