<svg width="30" height="30" viewBox="0 0 30 30" fill="none" xmlns="http://www.w3.org/2000/svg">
<path d="M14.0007 1.51673e-05C11.017 1.51673e-05 8.1555 1.18528 6.04571 3.29506C3.93593 5.40485 2.75066 8.26633 2.75066 11.25V17.2525L0.340664 23.2875C0.265181 23.477 0.237234 23.6822 0.259261 23.885C0.281288 24.0878 0.352621 24.2821 0.467032 24.451C0.581444 24.6199 0.735457 24.7583 0.915629 24.854C1.0958 24.9497 1.29666 24.9998 1.50066 25H9.00066C9.00066 27.77 11.2307 30 14.0007 30C16.7707 30 19.0007 27.77 19.0007 25H26.5007C26.7047 24.9998 26.9055 24.9497 27.0857 24.854C27.2659 24.7583 27.4199 24.6199 27.5343 24.451C27.6487 24.2821 27.72 24.0878 27.7421 23.885C27.7641 23.6822 27.7361 23.477 27.6607 23.2875L25.2507 17.25V12.5C24.3904 12.5013 23.5391 12.3242 22.7507 11.98V17.495C22.7511 17.6535 22.7816 17.8104 22.8407 17.9575L24.6557 22.5H3.34566L5.16066 17.9575C5.21971 17.8104 5.25025 17.6535 5.25066 17.495V11.25C5.25023 9.61818 5.70614 8.01874 6.56688 6.63237C7.42761 5.246 8.65889 4.12795 10.1216 3.40453C11.5843 2.6811 13.2202 2.38112 14.8444 2.53848C16.4687 2.69584 18.0165 3.30426 19.3132 4.29502C19.5807 3.48252 20.0107 2.74002 20.5657 2.11252C18.654 0.735362 16.3567 -0.00386116 14.0007 1.51673e-05ZM16.5007 25C16.5007 26.39 15.3907 27.5 14.0007 27.5C12.6107 27.5 11.5007 26.39 11.5007 25H16.5007ZM22.4207 3.79002C22.0636 4.19932 21.8001 4.68157 21.6486 5.20316C21.497 5.72474 21.461 6.2731 21.5432 6.81001C21.6757 7.69805 22.1231 8.50883 22.8037 9.09444C23.4843 9.68005 24.3528 10.0015 25.2507 10C25.8785 10.0001 26.4962 9.84252 27.0473 9.5418C27.5984 9.24108 28.0652 8.80681 28.4048 8.27883C28.7445 7.75085 28.9461 7.14604 28.9913 6.51987C29.0365 5.8937 28.9237 5.26622 28.6634 4.69494C28.403 4.12367 28.0035 3.6269 27.5012 3.25018C26.999 2.87347 26.4103 2.62887 25.789 2.5388C25.1677 2.44874 24.5337 2.5161 23.9452 2.73471C23.3567 2.95332 22.8325 3.31618 22.4207 3.79002Z" fill="#333333"/>
<rect x="21" y="2" width="8.2" height="8.2" rx="4.1" fill="#F74545"/>
</svg>
