<svg width="19" height="19" viewBox="0 0 19 19" fill="none" xmlns="http://www.w3.org/2000/svg">
<g clip-path="url(#clip0_3348_9851)">
<path d="M11.7168 8.70801L11.0418 10.958H7.95117L8.62617 8.70801H11.7168Z" fill="#A4A4A4"/>
<path fill-rule="evenodd" clip-rule="evenodd" d="M2.15158 2.15061C0.833984 3.47001 0.833984 5.59041 0.833984 9.83301C0.833984 14.0756 0.833984 16.1969 2.15158 17.5145C3.47098 18.833 5.59138 18.833 9.83398 18.833C14.0766 18.833 16.1979 18.833 17.5155 17.5145C18.834 16.1978 18.834 14.0756 18.834 9.83301C18.834 5.59041 18.834 3.46911 17.5155 2.15061C16.1988 0.833008 14.0766 0.833008 9.83398 0.833008C5.59138 0.833008 3.47008 0.833008 2.15158 2.15061ZM9.12838 4.68681C9.29974 4.73841 9.44359 4.85595 9.52831 5.01357C9.61303 5.1712 9.63169 5.35603 9.58018 5.52741L9.03118 7.35801H12.1218L12.7878 5.13951C12.844 4.97404 12.9622 4.83683 13.1175 4.75673C13.2728 4.67662 13.4531 4.65987 13.6205 4.71C13.7879 4.76013 13.9294 4.87323 14.0151 5.02551C14.1008 5.17779 14.1242 5.35738 14.0802 5.52651L13.5312 7.35801H15.234C15.413 7.35801 15.5847 7.42912 15.7113 7.55571C15.8379 7.6823 15.909 7.85399 15.909 8.03301C15.909 8.21203 15.8379 8.38372 15.7113 8.5103C15.5847 8.63689 15.413 8.70801 15.234 8.70801H13.1262L12.4512 10.958H14.334C14.513 10.958 14.6847 11.0291 14.8113 11.1557C14.9379 11.2823 15.009 11.454 15.009 11.633C15.009 11.812 14.9379 11.9837 14.8113 12.1103C14.6847 12.2369 14.513 12.308 14.334 12.308H12.0462L11.3802 14.5265C11.324 14.692 11.2058 14.8292 11.0505 14.9093C10.8952 14.9894 10.7148 15.0061 10.5474 14.956C10.38 14.9059 10.2386 14.7928 10.1529 14.6405C10.0671 14.4882 10.0438 14.3086 10.0878 14.1395L10.6368 12.308H7.54618L6.88018 14.5265C6.85735 14.6143 6.81706 14.6966 6.76171 14.7685C6.70636 14.8404 6.63709 14.9003 6.55803 14.9448C6.47898 14.9893 6.39177 15.0175 6.30161 15.0275C6.21145 15.0375 6.12019 15.0293 6.03328 15.0033C5.94637 14.9772 5.86561 14.934 5.7958 14.876C5.72599 14.8181 5.66858 14.7467 5.627 14.666C5.58542 14.5854 5.56051 14.4972 5.55377 14.4068C5.54704 14.3163 5.5586 14.2254 5.58778 14.1395L6.13678 12.308H4.43398C4.25496 12.308 4.08327 12.2369 3.95669 12.1103C3.8301 11.9837 3.75898 11.812 3.75898 11.633C3.75898 11.454 3.8301 11.2823 3.95669 11.1557C4.08327 11.0291 4.25496 10.958 4.43398 10.958H6.54178L7.21678 8.70801H5.33398C5.15496 8.70801 4.98327 8.63689 4.85669 8.5103C4.7301 8.38372 4.65898 8.21203 4.65898 8.03301C4.65898 7.85399 4.7301 7.6823 4.85669 7.55571C4.98327 7.42912 5.15496 7.35801 5.33398 7.35801H7.62178L8.28778 5.13951C8.31324 5.05458 8.35518 4.9755 8.41121 4.90678C8.46723 4.83807 8.53624 4.78106 8.61431 4.73902C8.69237 4.69698 8.77794 4.67074 8.86615 4.66178C8.95436 4.65282 9.04346 4.66132 9.12838 4.68681Z" fill="#A4A4A4"/>
</g>
<defs>
<clipPath id="clip0_3348_9851">
<rect width="19" height="19" fill="white"/>
</clipPath>
</defs>
</svg>
