<?xml version="1.0" encoding="UTF-8"?>
<svg id="_레이어_2" data-name="레이어 2" xmlns="http://www.w3.org/2000/svg" viewBox="0 0 73.56 45.78">
  <defs>
    <style>
      .cls-1 {
        fill: #e8f5fc;
      }

      .cls-2 {
        fill: #f2aeb2;
      }

      .cls-3 {
        fill: #919191;
      }

      .cls-4 {
        fill: #7c7b7c;
      }

      .cls-5 {
        fill: #b4dcf5;
      }

      .cls-6 {
        fill: #b4e0f8;
      }

      .cls-7 {
        fill: #abaaaa;
      }

      .cls-8 {
        fill: #3c3d3d;
      }

      .cls-9 {
        fill: #82c47a;
      }
    </style>
  </defs>
  <g id="_레이어_1-2" data-name="레이어 1">
    <g>
      <g>
        <g>
          <g>
            <g>
              <path class="cls-4" d="m18.01,4.93c-1.96,9.36-3.4,18.82-4.31,28.33"/>
              <path class="cls-7" d="m15.59,4.26c-2,9.58-3.46,19.26-4.4,29-.13,1.35,1.24,2.5,2.5,2.5,1.46,0,2.37-1.15,2.5-2.5.9-9.3,2.32-18.53,4.22-27.67.28-1.32-.39-2.7-1.75-3.08-1.24-.34-2.8.42-3.08,1.75h0Z"/>
            </g>
            <g>
              <g>
                <path class="cls-4" d="m18.49,4.59c9.53-1.11,18.87-1.24,28.63-1.77,7.93-.43,16.11-.32,23.87-.32"/>
                <path class="cls-7" d="m18.49,7.09c8.77-1.01,17.59-1.23,26.4-1.66s17.39-.44,26.1-.44c3.22,0,3.22-5,0-5-8.71,0-17.39.01-26.1.44s-17.63.65-26.4,1.66c-1.34.15-2.5,1.04-2.5,2.5,0,1.23,1.15,2.66,2.5,2.5h0Z"/>
              </g>
              <g>
                <path class="cls-4" d="m71.11,3.35c-1.68,10.43-1.58,21.05-1.47,31.61"/>
                <path class="cls-7" d="m68.69,2.69c-1.7,10.69-1.67,21.48-1.56,32.27.03,3.22,5.03,3.22,5,0-.1-10.32-.24-20.72,1.39-30.94.21-1.33-.34-2.69-1.75-3.08-1.19-.33-2.86.4-3.08,1.75h0Z"/>
              </g>
            </g>
            <g>
              <path class="cls-4" d="m2.51,42.15c2.74-1.92,5.47-3.85,8.21-5.77.99-.69,2.11-1.37,3.09-1.96"/>
              <path class="cls-7" d="m3.77,44.31c3.73-2.62,7.39-5.38,11.3-7.73,1.12-.67,1.63-2.28.9-3.42s-2.22-1.62-3.42-.9c-3.91,2.35-7.57,5.11-11.3,7.73-1.07.75-1.67,2.22-.9,3.42.68,1.06,2.28,1.7,3.42.9h0Z"/>
            </g>
            <g>
              <path class="cls-4" d="m61.99,43.28c-19.72-.02-39.43-.2-59.15-.52"/>
              <path class="cls-7" d="m61.99,40.78c-19.72-.02-39.43-.2-59.15-.52-3.22-.05-3.22,4.95,0,5,19.71.32,39.43.5,59.15.52,3.22,0,3.22-5,0-5h0Z"/>
            </g>
            <g>
              <path class="cls-4" d="m68.51,35.67c-2.42,1.98-4.51,4.36-6.16,7.02"/>
              <path class="cls-7" d="m66.74,33.9c-2.58,2.12-4.79,4.69-6.55,7.53-.69,1.11-.27,2.8.9,3.42s2.68.29,3.42-.9c.51-.83,1.07-1.63,1.66-2.4l-.39.51c1.32-1.7,2.83-3.25,4.49-4.62.47-.38.73-1.19.73-1.77,0-.61-.27-1.35-.73-1.77s-1.1-.76-1.77-.73c-.7.03-1.23.29-1.77.73h0Z"/>
            </g>
          </g>
          <polygon class="cls-7" points="13.81 34.42 18.49 4.93 70.34 2.5 69.63 34.96 62.35 42.69 2.51 42.15 13.81 34.42"/>
        </g>
        <g>
          <path class="cls-5" d="m23.83,11.13c13.13-.51,26.25-1.02,39.38-1.53,3.21-.12,3.22-5.12,0-5-13.13.51-26.25,1.02-39.38,1.53-3.21.12-3.22,5.12,0,5h0Z"/>
          <path class="cls-6" d="m60.86,7.12c-.88,7.74-1.26,15.51-1.22,23.3l2.5-2.5c-13.82.06-27.66.23-41.47-.46l2.5,2.5c.04-3.56.67-7.18,1.04-10.73s.92-6.71,2.04-9.94c.44-1.28-.5-2.73-1.75-3.08-1.37-.38-2.63.47-3.08,1.75-1.22,3.52-1.78,7.16-2.17,10.85s-1.03,7.45-1.08,11.15c-.02,1.4,1.16,2.43,2.5,2.5,13.81.69,27.65.52,41.47.46,1.35,0,2.51-1.14,2.5-2.5-.04-7.79.34-15.56,1.22-23.3.15-1.34-1.26-2.5-2.5-2.5-1.48,0-2.35,1.15-2.5,2.5h0Z"/>
          <path class="cls-6" d="m24.46,8.66s-4.54,9.61-2.36,20.59l40.67,1.21,1.54-23.3-39.85,1.5Z"/>
        </g>
        <path class="cls-8" d="m31.31,16.79c-.15,0-.29.03-.43.05-.04,0-.07.02-.11.03-.13.05-.27.1-.39.17-.02.01-.03.02-.05.03-.1.07-.2.15-.29.22-.03.02-.06.05-.08.08-.08.09-.15.19-.22.29-.01.01-.02.03-.03.05-.07.12-.13.28-.17.39-.01.04-.03.07-.03.11-.05.17-.06.33-.02.5,0,.17.06.32.15.46l.2.25c.16.15.34.26.55.32.13.05.26.1.4.12.11.02.28.05.42.05.02,0,.03,0,.05,0,0,0,.02,0,.02,0,.11-.01.24-.03.36-.05.03,0,.06-.01.09-.03.12-.04.25-.09.36-.15s.2-.14.29-.23c0,0,.01-.01.02-.02,0,0,0,0,0-.01.07-.08.15-.18.2-.26.01-.02.02-.03.03-.05,0,0,0-.02.01-.03.05-.11.1-.21.14-.32,0-.02.01-.04.01-.05.02-.12.03-.24.05-.35,0-.01,0-.02,0-.04,0-.02,0-.04,0-.06,0-.09-.03-.25-.05-.34,0,0,0,0,0-.01,0-.01,0-.02,0-.03,0,0,0,0,0-.01,0,0,0,0,0,0l-.13-.3s0-.02-.01-.03c-.03-.05-.09-.11-.11-.15-.02-.03-.07-.1-.11-.15-.09-.09-.19-.17-.29-.23,0,0,0,0-.01,0-.05-.02-.1-.04-.16-.07-.05-.02-.1-.05-.16-.07-.01,0-.02,0-.03,0-.17-.05-.33-.06-.5-.02-.17,0-.32.06-.46.15-.15.08-.26.19-.35.32-.11.12-.19.26-.22.43l-.04.33c0,.23.06.44.17.63l.2.25c.16.15.34.26.55.32.01,0,.03,0,.04.01l-.3-.13s.03.02.05.03l-.25-.2s.02.02.03.03l-.2-.25s.02.03.03.05l-.13-.3s.02.05.02.07l-.04-.33s0,.06,0,.09l.04-.33s-.01.07-.03.1l.13-.3s-.03.06-.05.08l.2-.25s-.03.04-.05.05l.25-.2s-.05.03-.07.04l.3-.13s-.08.03-.12.03l.33-.04c-.06,0-.11,0-.17,0l.33.04c-.14-.02-.27-.07-.4-.12l.87,1.54s.02-.08.04-.12l-.13.3s.05-.1.08-.14l-.2.25s.08-.09.12-.12l-.25.2s.09-.06.14-.08l-.3.13c.05-.02.1-.04.16-.04l-.33.04s.05,0,.07,0c.17,0,.33-.03.48-.11.15-.05.29-.14.4-.26.12-.11.21-.25.26-.4.08-.15.11-.31.11-.48l-.04-.33c-.06-.21-.17-.4-.32-.55l-.25-.2c-.19-.11-.41-.17-.63-.17h0Z"/>
        <path class="cls-8" d="m49.54,16.33c-.05.03-.1.08-.15.11-.04.03-.1.07-.15.11-.01.01-.03.03-.04.04-.07.08-.15.18-.21.27,0,0-.01.02-.02.02,0,0,0,.01-.01.02,0,0,0,.01,0,.02-.04.09-.1.21-.13.31-.05.14-.06.3-.07.44,0,.04,0,.08,0,.12.02.13.03.26.05.38,0,.02.01.04.02.06.04.12.09.23.14.34,0,.02.02.04.03.06.07.12.16.24.26.34.01.01.03.03.04.04.08.07.18.15.27.21,0,0,.02.01.03.02.12.08.26.13.4.17,0,0,.02,0,.03,0,.11.02.24.04.35.05.02,0,.04,0,.06,0,.13,0,.3-.02.44-.07.1-.04.22-.08.31-.13,0,0,.02,0,.02-.01s.02,0,.02-.01c.09-.06.19-.14.27-.21.1-.09.2-.23.27-.33.02-.03.04-.06.06-.1.05-.11.1-.23.14-.34,0-.02.01-.04.02-.06.03-.12.04-.25.05-.38,0-.02,0-.04,0-.06s0-.04,0-.06c-.01-.12-.03-.24-.05-.36,0-.01,0-.02,0-.03,0-.02-.01-.04-.02-.06-.04-.11-.09-.21-.13-.32,0,0,0-.02-.01-.03,0-.02-.02-.04-.03-.05-.06-.09-.14-.19-.21-.27,0,0-.01-.02-.02-.02s-.02-.01-.02-.02c-.09-.07-.18-.14-.27-.21-.02-.01-.04-.02-.06-.03-.14-.09-.3-.14-.46-.15-.17-.04-.33-.03-.5.02-.16.04-.3.11-.43.22-.14.09-.24.21-.32.35l-.13.3c-.06.22-.06.44,0,.66l.13.3c.11.19.26.34.45.45.03.01.05.03.08.05l-.25-.2s.04.04.06.06l-.2-.25s.03.05.05.08l-.13-.3s.03.08.03.12l-.04-.33c0,.05,0,.1,0,.15l.04-.33c0,.05-.02.1-.04.15l.13-.3s-.04.07-.06.11l.2-.25s-.04.05-.07.07l.25-.2s-.05.04-.08.05l.3-.13s-.06.02-.09.02l.33-.04s-.06,0-.09,0l.33.04s-.06-.01-.09-.02l.3.13s-.06-.03-.09-.05l.25.2s-.06-.05-.08-.08l.2.25s-.05-.08-.07-.12l.13.3s-.03-.09-.04-.14l.04.33s0-.09,0-.14l-.04.33s.01-.06.03-.1l-.13.3s.03-.05.04-.08l-.2.25s.04-.04.06-.06l-.25.2s.01-.01.02-.02c.15-.08.26-.19.35-.32.11-.12.19-.26.22-.43.05-.17.06-.33.02-.5,0-.17-.06-.32-.15-.46l-.2-.25c-.16-.15-.34-.26-.55-.32l-.33-.04c-.23,0-.44.06-.63.17h0Z"/>
        <path class="cls-8" d="m35.16,19.59c.91,1.85,2.98,2.81,4.99,2.77,1.89-.03,4.15-.82,4.71-2.83.35-1.24-1.58-1.77-1.93-.53-.07.24-.14.36-.3.52-.2.2-.39.32-.7.47-.48.23-1.28.37-1.92.37-1.37,0-2.53-.6-3.12-1.78-.24-.48-.93-.62-1.37-.36-.49.29-.6.88-.36,1.37h0Z"/>
        <path class="cls-2" d="m27.33,20.59c-.24.09-.45.18-.63.38-.04.05-.17.21-.2.26,0,0,0,.02-.01.02-.03.05-.12.24-.14.35-.06.31-.06.45,0,.76.03.14.09.28.17.41.15.24.28.36.51.52.1.07.27.12.35.16.03.01.06.02.09.03.15.03.33.06.49.05s.35-.04.51-.08.31-.1.46-.18c.31-.16.58-.49.66-.83.02-.06.02-.14.03-.2.01-.08.02-.13.02-.2,0-.13-.02-.28-.06-.41-.05-.15-.11-.3-.19-.44-.04-.07-.09-.13-.14-.19s-.09-.13-.14-.18c-.02-.02-.04-.04-.06-.06-.08-.07-.18-.14-.26-.2-.02-.01-.03-.02-.05-.03-.13-.08-.28-.14-.42-.19-.15-.05-.32-.07-.48-.07s-.33.02-.49.08c-.32.11-.42.18-.68.39-.02.02-.04.04-.06.06-.08.1-.17.2-.23.31-.15.28-.18.46-.21.77,0,.17.03.33.11.48.05.15.14.29.26.4.11.12.25.21.4.26.15.08.31.11.48.11l.33-.04c.21-.06.4-.17.55-.32l.2-.25c.11-.19.17-.41.17-.63,0,0,0-.02,0-.03l-.04.33s.01-.06.02-.09l-.13.3s.03-.05.05-.08l-.2.25s.05-.06.08-.08l-.25.2s.07-.04.1-.06l-.3.13s.07-.03.11-.03l-.33.04s.08,0,.12,0l-.33-.04s.08.02.12.03l-.3-.13s.09.05.13.08l-.25-.2s.08.08.12.12l-.2-.25s.07.1.09.16l-.13-.3s.03.07.03.1l-.04-.33s0,.03,0,.05l.04-.33s0,.03-.01.05l.13-.3s0,.02-.01.02l.2-.25s-.02.02-.03.03l.25-.2s-.03.02-.05.03l.3-.13c-.1.04-.2.06-.31.08l.33-.04c-.05,0-.11,0-.16,0l.33.04s-.07-.01-.11-.03l.3.13s-.04-.02-.06-.03l.25.2s-.03-.03-.05-.04l.2.25s-.03-.05-.04-.07l.13.3s-.02-.05-.02-.07l.04.33s0-.05,0-.08l-.04.33s0-.04.02-.06l-.13.3s.01-.02.02-.03l-.2.25s.02-.02.03-.03l-.25.2s.03-.02.04-.02l-.3.13h0c.16-.04.3-.12.43-.23.14-.09.24-.21.32-.35.09-.14.14-.3.15-.46.04-.17.03-.33-.02-.5l-.13-.3c-.11-.19-.26-.34-.45-.45l-.3-.13c-.22-.06-.44-.06-.66,0h0Z"/>
        <path class="cls-2" d="m53.58,20.05c-.07-.06-.18-.16-.27-.21-.07-.04-.24-.11-.31-.13-.2-.06-.5-.06-.69,0-.01,0-.02,0-.03,0-.08.02-.24.09-.31.13-.04.02-.18.14-.14.11-.05.03-.1.07-.14.11l-.2.25c-.07.1-.12.22-.15.34-.02.09-.04.25-.05.35,0,.11.03.3.04.35,0,.01,0,.03,0,.04l.06.15c.02.06.05.11.07.17.06.11.15.21.23.31.11.12.25.21.38.3.06.04.12.08.18.11.15.08.31.14.46.2.07.03.14.05.21.06.36.07.63.08.99,0,.27-.06.49-.19.7-.36.09-.07.16-.12.23-.2.22-.26.27-.35.39-.67.11-.28.1-.65.02-.94-.04-.15-.11-.31-.2-.44-.07-.1-.15-.22-.24-.31-.05-.06-.13-.1-.19-.15-.18-.14-.33-.23-.55-.29-.31-.08-.5-.06-.81,0-.16.04-.3.11-.43.22-.14.09-.24.21-.32.35-.09.14-.14.3-.15.46-.04.17-.03.33.02.5.1.3.29.59.57.75l.3.13c.22.06.44.06.66,0h.02c-.11.01-.22.03-.33.04.03,0,.05,0,.08,0l-.33-.04s.06.01.09.02l-.3-.13s.06.03.08.05l-.25-.2s.06.05.08.08l-.2-.25s.05.08.07.12l-.13-.3s.02.08.03.12l-.04-.33s0,.07,0,.1l.04-.33s-.02.08-.03.12l.13-.3s-.04.07-.06.11l.2-.25s-.06.07-.1.1l.25-.2c-.05.04-.11.07-.17.1l.3-.13c-.06.02-.12.04-.19.05l.33-.04c-.07,0-.14,0-.21,0l.33.04c-.09-.01-.18-.04-.27-.08l.3.13c-.13-.06-.26-.13-.38-.22l.25.2s-.06-.05-.08-.08l.2.25s-.02-.04-.03-.06l.13.3s0-.03,0-.04l.04.33v-.02c-.01.11-.03.22-.04.33,0-.01,0-.02,0-.03l-.13.3s.01-.02.02-.03l-.2.25h.01c-.08.05-.17.12-.25.18,0,0,.02-.01.03-.02l-.3.13s.02,0,.03,0l-.33.04h.02c-.11-.02-.22-.03-.33-.04h.01c-.1-.04-.2-.08-.3-.12h.01c-.08-.06-.17-.12-.25-.19h.01c.11.13.25.22.4.27.15.08.31.11.48.11.17,0,.33-.03.48-.11.15-.05.29-.14.4-.26.22-.24.38-.55.37-.88l-.04-.33c-.06-.21-.17-.4-.32-.55h0Z"/>
        <g>
          <path class="cls-4" d="m61.99,45.09h-.01l-59.71-.67c-.55,0-1-.46-.99-1.01,0-.55.45-.99,1-.99h.01l59.71.67c.55,0,1,.46.99,1.01,0,.55-.45.99-1,.99Z"/>
          <path class="cls-4" d="m61.99,45.09c-.19,0-.38-.05-.55-.17-.46-.31-.58-.93-.28-1.39,2.64-3.98,5.62-7.09,8.85-9.26.46-.31,1.08-.19,1.39.27.31.46.19,1.08-.27,1.39-3.01,2.02-5.8,4.96-8.3,8.71-.19.29-.51.45-.83.45Z"/>
          <path class="cls-4" d="m70.56,36.1c-.51,0-.95-.39-1-.91-1.27-13.86,1.46-32.66,1.49-32.85.08-.55.59-.93,1.13-.84.55.08.92.59.84,1.13-.03.19-2.72,18.75-1.48,32.38.05.55-.36,1.04-.91,1.09-.03,0-.06,0-.09,0Z"/>
        </g>
        <g>
          <path class="cls-3" d="m38.87,37.76h0l-26.87-.3c-.47,0-.85-.39-.84-.86,0-.47.38-.84.85-.84h0l26.87.3c.47,0,.85.39.84.86,0,.47-.38.84-.85.84Z"/>
          <path class="cls-3" d="m61.99,37.95h0l-20.14-.19c-.47,0-.85-.39-.84-.86,0-.47.37-.83.86-.84l20.14.19c.47,0,.85.39.84.86,0,.47-.38.84-.85.84Z"/>
          <path class="cls-3" d="m46.34,40.76h0l-26.87-.3c-.47,0-.85-.39-.84-.86,0-.47.38-.84.85-.84h0l26.87.3c.47,0,.85.39.84.86,0,.47-.38.84-.85.84Z"/>
          <path class="cls-3" d="m58.68,40.81h0l-9.02-.1c-.47,0-.85-.39-.84-.86,0-.47.38-.84.85-.84h0l9.02.1c.47,0,.85.39.84.86,0,.47-.38.84-.85.84Z"/>
          <path class="cls-3" d="m16.29,40.5h0l-9.02-.1c-.47,0-.85-.39-.84-.86,0-.47.38-.84.85-.84h0l9.02.1c.47,0,.85.39.84.86,0,.47-.38.84-.85.84Z"/>
        </g>
        <path class="cls-1" d="m23.88,9.83c-.54,0-.98-.42-1-.96-.02-.55.41-1.02.96-1.03l3.52-.12c.54-.03,1.01.41,1.03.96s-.41,1.02-.96,1.03l-3.52.12s-.02,0-.04,0Z"/>
        <path class="cls-1" d="m30.59,9.71c-.54,0-.98-.42-1-.96-.02-.55.41-1.02.96-1.03l1.54-.05s.02,0,.04,0c.54,0,.98.42,1,.96.02.55-.41,1.02-.96,1.03l-1.54.05s-.02,0-.04,0Z"/>
      </g>
      <path class="cls-9" d="m59.6,8.7h1.28c.26,0,.53-.11.71-.29.1-.09.17-.2.21-.32.06-.12.09-.25.09-.39-.01-.26-.1-.53-.29-.71s-.44-.29-.71-.29h-1.28c-.26,0-.53.11-.71.29-.1.09-.17.2-.21.32-.06.12-.09.25-.09.39.01.26.1.53.29.71s.44.29.71.29h0Z"/>
    </g>
  </g>
</svg>