<?xml version="1.0" encoding="UTF-8"?>
<svg id="_레이어_2" data-name="레이어 2" xmlns="http://www.w3.org/2000/svg" viewBox="0 0 73.56 45.78">
  <defs>
    <style>
      .cls-1 {
        fill: #919191;
      }

      .cls-2 {
        fill: #7c7b7c;
      }

      .cls-3 {
        fill: #abaaaa;
      }

      .cls-4 {
        fill: #c9caca;
      }

      .cls-5 {
        fill: #dbdbdb;
      }

      .cls-6 {
        fill: #3c3d3d;
      }
    </style>
  </defs>
  <g id="_레이어_1-2" data-name="레이어 1">
    <g>
      <g>
        <g>
          <g>
            <path class="cls-2" d="m18.01,4.93c-1.96,9.36-3.4,18.82-4.31,28.33"/>
            <path class="cls-3" d="m15.59,4.26c-2,9.58-3.46,19.26-4.4,29-.13,1.35,1.24,2.5,2.5,2.5,1.46,0,2.37-1.15,2.5-2.5.9-9.3,2.32-18.53,4.22-27.67.28-1.32-.39-2.7-1.75-3.08-1.24-.34-2.8.42-3.08,1.75h0Z"/>
          </g>
          <g>
            <g>
              <path class="cls-2" d="m18.49,4.59c9.53-1.11,18.87-1.24,28.63-1.77,7.93-.43,16.11-.32,23.87-.32"/>
              <path class="cls-3" d="m18.49,7.09c8.77-1.01,17.59-1.23,26.4-1.66s17.39-.44,26.1-.44c3.22,0,3.22-5,0-5-8.71,0-17.39.01-26.1.44s-17.63.65-26.4,1.66c-1.34.15-2.5,1.04-2.5,2.5,0,1.23,1.15,2.66,2.5,2.5h0Z"/>
            </g>
            <g>
              <path class="cls-2" d="m71.11,3.35c-1.68,10.43-1.58,21.05-1.47,31.61"/>
              <path class="cls-3" d="m68.69,2.69c-1.7,10.69-1.67,21.48-1.56,32.27.03,3.22,5.03,3.22,5,0-.1-10.32-.24-20.72,1.39-30.94.21-1.33-.34-2.69-1.75-3.08-1.19-.33-2.86.4-3.08,1.75h0Z"/>
            </g>
          </g>
          <g>
            <path class="cls-2" d="m2.51,42.15c2.74-1.92,5.47-3.85,8.21-5.77.99-.69,2.11-1.37,3.09-1.96"/>
            <path class="cls-3" d="m3.77,44.31c3.73-2.62,7.39-5.38,11.3-7.73,1.12-.67,1.63-2.28.9-3.42s-2.22-1.62-3.42-.9c-3.91,2.35-7.57,5.11-11.3,7.73-1.07.75-1.67,2.22-.9,3.42.68,1.06,2.28,1.7,3.42.9h0Z"/>
          </g>
          <g>
            <path class="cls-2" d="m61.99,43.28c-19.72-.02-39.43-.2-59.15-.52"/>
            <path class="cls-3" d="m61.99,40.78c-19.72-.02-39.43-.2-59.15-.52-3.22-.05-3.22,4.95,0,5,19.71.32,39.43.5,59.15.52,3.22,0,3.22-5,0-5h0Z"/>
          </g>
          <g>
            <path class="cls-2" d="m68.51,35.67c-2.42,1.98-4.51,4.36-6.16,7.02"/>
            <path class="cls-3" d="m66.74,33.9c-2.58,2.12-4.79,4.69-6.55,7.53-.69,1.11-.27,2.8.9,3.42s2.68.29,3.42-.9c.51-.83,1.07-1.63,1.66-2.4l-.39.51c1.32-1.7,2.83-3.25,4.49-4.62.47-.38.73-1.19.73-1.77,0-.61-.27-1.35-.73-1.77s-1.1-.76-1.77-.73c-.7.03-1.23.29-1.77.73h0Z"/>
          </g>
        </g>
        <polygon class="cls-3" points="13.81 34.42 18.49 4.93 70.34 2.5 69.63 34.96 62.35 42.69 2.51 42.15 13.81 34.42"/>
      </g>
      <g>
        <path class="cls-4" d="m23.83,10.92c13.13-.51,26.25-1.02,39.38-1.53,3.21-.12,3.22-5.12,0-5-13.13.51-26.25,1.02-39.38,1.53-3.21.12-3.22,5.12,0,5h0Z"/>
        <path class="cls-4" d="m60.86,6.91c-.88,7.74-1.26,15.51-1.22,23.3l2.5-2.5c-13.82.06-27.66.23-41.47-.46l2.5,2.5c.04-3.56.67-7.18,1.04-10.73s.92-6.71,2.04-9.94c.44-1.28-.5-2.73-1.75-3.08-1.37-.38-2.63.47-3.08,1.75-1.22,3.52-1.78,7.16-2.17,10.85s-1.03,7.45-1.08,11.15c-.02,1.4,1.16,2.43,2.5,2.5,13.81.69,27.65.52,41.47.46,1.35,0,2.51-1.14,2.5-2.5-.04-7.79.34-15.56,1.22-23.3.15-1.34-1.26-2.5-2.5-2.5-1.48,0-2.35,1.15-2.5,2.5h0Z"/>
        <path class="cls-4" d="m23.5,7.52s-4.54,9.61-2.36,20.59l40.67,1.21,1.54-23.3-39.85,1.5Z"/>
      </g>
      <path class="cls-6" d="m35.16,19.59c.91,1.85,2.98,2.81,4.99,2.77,1.89-.03,4.15-.82,4.71-2.83.35-1.24-1.58-1.77-1.93-.53-.07.24-.14.36-.3.52-.2.2-.39.32-.7.47-.48.23-1.28.37-1.92.37-1.37,0-2.53-.6-3.12-1.78-.24-.48-.93-.62-1.37-.36-.49.29-.6.88-.36,1.37h0Z"/>
      <g>
        <path class="cls-2" d="m61.99,45.09h-.01l-59.71-.67c-.55,0-1-.46-.99-1.01,0-.55.45-.99,1-.99h.01l59.71.67c.55,0,1,.46.99,1.01,0,.55-.45.99-1,.99Z"/>
        <path class="cls-2" d="m61.99,45.09c-.19,0-.38-.05-.55-.17-.46-.31-.58-.93-.28-1.39,2.65-3.98,5.62-7.09,8.85-9.26.46-.31,1.08-.19,1.39.27.31.46.19,1.08-.27,1.39-3.01,2.02-5.8,4.96-8.3,8.71-.19.29-.51.45-.83.45Z"/>
        <path class="cls-2" d="m70.56,36.1c-.51,0-.95-.39-1-.91-1.27-13.86,1.46-32.66,1.49-32.85.08-.55.59-.93,1.13-.84.55.08.92.59.84,1.13-.03.19-2.72,18.75-1.48,32.38.05.55-.36,1.04-.91,1.09-.03,0-.06,0-.09,0Z"/>
      </g>
      <g>
        <path class="cls-1" d="m38.87,37.76h0l-26.87-.3c-.47,0-.85-.39-.84-.86,0-.47.38-.84.85-.84h0l26.87.3c.47,0,.85.39.84.86,0,.47-.38.84-.85.84Z"/>
        <path class="cls-1" d="m61.99,37.95h0l-20.14-.19c-.47,0-.85-.39-.84-.86,0-.47.38-.84.85-.84h0l20.14.19c.47,0,.85.39.84.86,0,.47-.38.84-.85.84Z"/>
        <path class="cls-1" d="m46.34,40.76h0l-26.87-.3c-.47,0-.85-.39-.84-.86,0-.47.38-.84.85-.84h0l26.87.3c.47,0,.85.39.84.86,0,.47-.38.84-.85.84Z"/>
        <path class="cls-1" d="m58.68,40.81h0l-9.02-.1c-.47,0-.85-.39-.84-.86,0-.47.38-.84.85-.84h0l9.02.1c.47,0,.85.39.84.86,0,.47-.38.84-.85.84Z"/>
        <path class="cls-1" d="m16.29,40.5h0l-9.02-.1c-.47,0-.85-.39-.84-.86,0-.47.38-.84.85-.84h0l9.02.1c.47,0,.85.39.84.86,0,.47-.38.84-.85.84Z"/>
      </g>
      <path class="cls-5" d="m23.88,9.83c-.54,0-.98-.42-1-.96-.02-.55.41-1.02.96-1.03l3.52-.12c.57-.02,1.02.41,1.03.96.02.55-.41,1.02-.96,1.03l-3.52.12s-.02,0-.04,0Z"/>
      <path class="cls-5" d="m30.59,9.71c-.54,0-.98-.42-1-.96-.02-.55.41-1.02.96-1.03l1.54-.05c.52-.02,1.02.41,1.03.96.02.55-.41,1.02-.96,1.03l-1.54.05s-.02,0-.04,0Z"/>
      <path class="cls-6" d="m49.73,19.1c.05,0,.11,0,.16.01l-.33-.04c.18.02.35.07.51.14l-.3-.13c.16.07.31.15.44.26l-.25-.2s.08.07.13.11l1.51-1.96c-.3-.14-.6-.29-.9-.43-.14-.09-.3-.14-.46-.15-.17-.04-.33-.03-.5.02-.16.04-.3.11-.43.22-.14.09-.24.21-.32.35l-.13.3c-.06.22-.06.44,0,.66l.13.3c.11.19.26.34.45.45.3.14.6.29.9.43.14.09.3.14.46.15.17.04.33.03.5-.02l.3-.13c.15-.08.26-.19.35-.32.08-.08.13-.17.16-.28.08-.15.11-.31.11-.48l-.04-.33c-.06-.21-.17-.4-.32-.55-.08-.07-.17-.14-.25-.2s-.17-.14-.27-.2c-.19-.12-.39-.2-.6-.28-.11-.04-.22-.08-.33-.11-.06-.01-.12-.02-.18-.03-.16-.02-.33-.05-.5-.06-.17,0-.33.03-.48.11-.15.05-.29.14-.4.26-.12.11-.21.25-.26.4-.08.15-.11.31-.11.48l.04.33c.06.21.17.4.32.55l.25.2c.19.11.41.17.63.17h0Z"/>
      <path class="cls-6" d="m30.76,19.62c.13-.09.27-.16.42-.23l-.3.13c.19-.08.39-.14.6-.17l.3-.13c.15-.08.26-.19.35-.32.08-.08.13-.17.16-.28.08-.15.11-.31.11-.48l-.04-.33-.13-.3c-.08-.15-.19-.26-.32-.35-.12-.11-.26-.19-.43-.22-.15-.05-.31-.07-.47-.06-.14,0-.32.03-.47.08-.2.07-.39.16-.57.25-.2.1-.4.2-.59.32-.15.08-.26.19-.35.32-.11.12-.19.26-.22.43-.05.17-.06.33-.02.5,0,.17.06.32.15.46l.2.25c.16.15.34.26.55.32l.33.04c.23,0,.44-.06.63-.17.25-.15.52-.29.79-.41l-.3.13c.06-.03.13-.05.2-.06l-.33.04s.07,0,.1,0l-.33-.04s.04,0,.06.02v-2.41c-.18.03-.37.08-.54.14-.27.1-.54.22-.78.37-.15.08-.26.19-.35.32-.11.12-.19.26-.22.43-.05.17-.06.33-.02.5,0,.17.06.32.15.46l.2.25c.16.15.34.26.55.32l.33.04c.23,0,.44-.06.63-.17h0Z"/>
    </g>
  </g>
</svg>